<svg xmlns="http://www.w3.org/2000/svg" width="176" height="44" viewBox="0 0 176 44" fill="none"><g clip-path="url(#clip0_56_38)"><path d="M19.426 0H170.712C173.629 0 175.998 2.39486 175.998 5.34462V38.6536C175.998 41.6033 173.629 43.9982 170.712 43.9982H19.426V0Z" fill="black"></path><path d="M47.4229 18.9015C46.1825 18.9015 45.2418 18.635 44.4383 17.8099L45.4711 16.7658C45.9875 17.2879 46.688 17.4613 47.4337 17.4613C48.387 17.4613 48.8926 17.0907 48.8926 16.4281C48.8926 16.1488 48.8113 15.917 48.6398 15.7436C48.4791 15.5921 48.3184 15.5227 47.905 15.4643L46.93 15.3128C46.2059 15.2088 45.713 14.9879 45.3465 14.6283C44.9565 14.245 44.7615 13.6992 44.7615 13.0038C44.7615 11.5289 45.8412 10.4976 47.6088 10.4976C48.7337 10.4976 49.5498 10.7768 50.2486 11.4613L49.2393 12.4708C48.7337 11.9724 48.1036 11.9013 47.5637 11.9013C46.7133 11.9013 46.3125 12.3777 46.3125 12.9453C46.3125 13.1662 46.3702 13.3743 46.5418 13.5368C46.7025 13.6883 46.9444 13.8033 47.2875 13.8507L48.2625 14.0022C49.0081 14.1063 49.4686 14.3034 49.8243 14.652C50.2612 15.0591 50.4562 15.6505 50.4562 16.3934C50.4562 17.9943 49.1472 18.8996 47.4247 18.8996L47.4229 18.9015Z" fill="white"></path><path d="M54.1486 18.9015C52.9081 18.9015 51.9674 18.635 51.164 17.8099L52.1967 16.7658C52.7131 17.2879 53.4137 17.4613 54.1594 17.4613C55.1127 17.4613 55.6183 17.0907 55.6183 16.4281C55.6183 16.1488 55.537 15.917 55.3655 15.7436C55.2048 15.5921 55.0441 15.5227 54.6306 15.4643L53.6556 15.3128C52.9316 15.2088 52.4387 14.9879 52.0722 14.6283C51.6822 14.245 51.4872 13.6992 51.4872 13.0038C51.4872 11.5289 52.5669 10.4976 54.3345 10.4976C55.4594 10.4976 56.2755 10.7768 56.9742 11.4613L55.9649 12.4708C55.4594 11.9724 54.8292 11.9013 54.2894 11.9013C53.439 11.9013 53.0381 12.3777 53.0381 12.9453C53.0381 13.1662 53.0959 13.3743 53.2674 13.5368C53.4281 13.6883 53.6701 13.8033 54.0131 13.8507L54.9899 14.0022C55.7356 14.1063 56.196 14.3034 56.5517 14.652C56.9887 15.0591 57.1837 15.6505 57.1837 16.3934C57.1837 17.9943 55.8747 18.8996 54.1522 18.8996L54.1486 18.9015Z" fill="white"></path><path d="M58.6823 18.8302V10.5669H60.2784V17.3919H63.987V18.8302H58.6823Z" fill="white"></path><path d="M70.691 18.9015C69.7503 18.9015 69.0606 18.5875 68.4991 18.0308C67.6848 17.2075 67.6721 16.2784 67.6721 14.6995C67.6721 13.1206 67.683 12.1933 68.4991 11.3682C69.0624 10.8115 69.7503 10.4976 70.691 10.4976C72.2185 10.4976 73.3885 11.3792 73.6883 13.1096H72.0578C71.8971 12.4361 71.4837 11.9378 70.691 11.9378C70.2541 11.9378 69.8984 12.1002 69.6691 12.3667C69.3712 12.7154 69.2683 13.1206 69.2683 14.6995C69.2683 16.2784 69.3712 16.6837 69.6691 17.0323C69.8984 17.2988 70.2541 17.4613 70.691 17.4613C71.4837 17.4613 71.908 16.9629 72.0687 16.2894H73.6883C73.3903 18.018 72.2077 18.9015 70.691 18.9015Z" fill="white"></path><path d="M75.0641 18.8302V10.5669H80.4483V12.0053H76.6602V13.9438H79.8867V15.3822H76.6602V17.39H80.4483V18.8284H75.0641V18.8302Z" fill="white"></path><path d="M86.3488 18.8302L84.7527 15.5337H83.6044V18.8302H82.0083V10.5669H85.2113C86.876 10.5669 87.8637 11.715 87.8637 13.0968C87.8637 14.2577 87.1631 14.9769 86.3705 15.2672L88.1959 18.8302H86.347H86.3488ZM85.1084 12.0053H83.6044V14.1866H85.1084C85.809 14.1866 86.2676 13.7339 86.2676 13.095C86.2676 12.4561 85.809 12.0034 85.1084 12.0034V12.0053Z" fill="white"></path><path d="M92.4678 12.0071V18.8321H90.8717V12.0071H88.7357V10.5687H94.602V12.0071H92.466H92.4678Z" fill="white"></path><path d="M95.9002 18.8302V10.5669H97.4963V18.8302H95.9002Z" fill="white"></path><path d="M100.995 12.0071V14.0387H104.222V15.4771H100.995V18.8321H99.3994V10.5687H104.784V12.0071H100.995Z" fill="white"></path><path d="M106.174 18.8302V10.5669H107.77V18.8302H106.174Z" fill="white"></path><path d="M109.675 18.8302V10.5669H115.059V12.0053H111.271V13.9438H114.497V15.3822H111.271V17.39H115.059V18.8284H109.675V18.8302Z" fill="white"></path><path d="M122.037 17.6237C121.452 18.4469 120.683 18.8302 119.569 18.8302H116.619V10.5669H119.569C120.683 10.5669 121.452 10.9502 122.037 11.7734C122.543 12.4817 122.554 13.3286 122.554 14.6977C122.554 16.0667 122.543 16.9136 122.037 17.6219V17.6237ZM120.625 12.5164C120.362 12.1805 119.972 12.0053 119.432 12.0053H118.215V17.39H119.432C119.972 17.39 120.362 17.2166 120.625 16.8789C120.923 16.5194 120.958 15.9973 120.958 14.6977C120.958 13.398 120.923 12.876 120.625 12.5164Z" fill="white"></path><path d="M47.4572 33.5024C46.2294 33.5024 45.3555 33.2122 44.5647 32.4109L45.379 31.5876C45.9766 32.1918 46.6537 32.389 47.4807 32.389C48.5604 32.389 49.1689 31.9253 49.1689 31.113C49.1689 30.7425 49.0768 30.4523 48.8475 30.2533C48.6416 30.0671 48.3654 29.9631 47.9519 29.9047L46.9877 29.7659C46.3215 29.6619 45.8051 29.452 45.4494 29.1052C45.0468 28.7346 44.8409 28.1998 44.8409 27.5153C44.8409 26.0769 45.8737 25.1003 47.5728 25.1003C48.6633 25.1003 49.409 25.3796 50.1096 26.0404L49.3296 26.8289C48.824 26.3416 48.2282 26.1901 47.5276 26.1901C46.5634 26.1901 46.0471 26.7231 46.0471 27.4788C46.0471 27.78 46.1283 28.0592 46.345 28.2454C46.5508 28.4316 46.7928 28.5466 47.2405 28.616L48.2155 28.7675C48.9612 28.8843 49.3747 29.0577 49.7304 29.3826C50.1673 29.7897 50.3966 30.3573 50.3966 31.0765C50.3966 32.597 49.1797 33.5024 47.4572 33.5024Z" fill="white"></path><path d="M52.0595 33.433V25.1697H57.283V26.2959H53.3V28.7109H56.698V29.8243H53.3V32.3086H57.283V33.4349H52.0595V33.433Z" fill="white"></path><path d="M61.6218 33.5024C60.7262 33.5024 60.0383 33.2012 59.5093 32.6664C58.7166 31.8541 58.6823 31.0291 58.6823 29.3005C58.6823 27.5719 58.7166 26.7468 59.5093 25.9345C60.0365 25.4015 60.7262 25.0985 61.6218 25.0985C63.1258 25.0985 64.2506 26.0039 64.5377 27.6394H63.2756C63.0915 26.7924 62.5299 26.212 61.6218 26.212C61.1288 26.212 60.7154 26.3982 60.4156 26.7231C60.0022 27.1648 59.9227 27.6631 59.9227 29.3005C59.9227 30.9378 60.004 31.4361 60.4156 31.8779C60.7136 32.2028 61.127 32.3889 61.6218 32.3889C62.5281 32.3889 63.1023 31.8085 63.2973 30.9615H64.5377C64.2506 32.5989 63.1149 33.5024 61.6218 33.5024Z" fill="white"></path><path d="M68.992 33.5024C67.3273 33.5024 66.0652 32.3542 66.0652 30.6475V25.1697H67.3057V30.5891C67.3057 31.6916 67.9719 32.3761 68.9939 32.3761C70.0158 32.3761 70.6929 31.6916 70.6929 30.5891V25.1697H71.9333V30.6475C71.9333 32.3542 70.6586 33.5024 68.9939 33.5024H68.992Z" fill="white"></path><path d="M78.4513 33.433L76.7288 29.9503H75.1797V33.433H73.9393V25.1697H77.108C78.6572 25.1697 79.6448 26.1791 79.6448 27.5846C79.6448 28.7693 78.9334 29.5231 78.0144 29.7787L79.8976 33.4349H78.4513V33.433ZM77.0159 26.2959H75.1797V28.8843H77.0159C77.8429 28.8843 78.4044 28.4078 78.4044 27.5956C78.4044 26.7833 77.8411 26.2959 77.0159 26.2959Z" fill="white"></path><path d="M81.4576 33.433V25.1697H86.681V26.2959H82.698V28.7109H86.096V29.8243H82.698V32.3086H86.681V33.4349H81.4576V33.433Z" fill="white"></path><path d="M93.9015 26.2941V33.4312H92.661V26.2941H90.4113V25.1678H96.1512V26.2941H93.9015Z" fill="white"></path><path d="M102.075 33.433L100.353 29.9503H98.8035V33.433H97.5631V25.1697H100.732C102.281 25.1697 103.269 26.1791 103.269 27.5846C103.269 28.7693 102.557 29.5231 101.638 29.7787L103.521 33.4349H102.075V33.433ZM100.64 26.2959H98.8035V28.8843H100.64C101.467 28.8843 102.028 28.4078 102.028 27.5956C102.028 26.7833 101.465 26.2959 100.64 26.2959Z" fill="white"></path><path d="M109.778 33.433L109.214 31.7738H105.988L105.425 33.433H104.105L107.1 25.1697H108.099L111.094 33.433H109.774H109.778ZM107.631 27.0388L106.356 30.706H108.869L107.629 27.0388H107.631Z" fill="white"></path><path d="M117.274 33.433L113.497 27.6175V33.433H112.257V25.1697H113.392L117.17 30.9725V25.1697H118.41V33.433H117.274Z" fill="white"></path><path d="M122.714 33.5024C121.487 33.5024 120.613 33.2122 119.822 32.4109L120.636 31.5876C121.234 32.1918 121.911 32.389 122.738 32.389C123.818 32.389 124.426 31.9253 124.426 31.113C124.426 30.7425 124.334 30.4523 124.105 30.2533C123.899 30.0671 123.623 29.9631 123.209 29.9047L122.245 29.7659C121.579 29.6619 121.062 29.452 120.707 29.1052C120.304 28.7346 120.098 28.1998 120.098 27.5153C120.098 26.0769 121.131 25.1003 122.83 25.1003C123.921 25.1003 124.666 25.3796 125.367 26.0404L124.587 26.8289C124.081 26.3416 123.485 26.1901 122.785 26.1901C121.821 26.1901 121.304 26.7231 121.304 27.4788C121.304 27.78 121.386 28.0592 121.602 28.2454C121.808 28.4316 122.05 28.5466 122.498 28.616L123.473 28.7675C124.219 28.8843 124.632 29.0577 124.988 29.3826C125.425 29.7897 125.654 30.3573 125.654 31.0765C125.654 32.597 124.437 33.5024 122.714 33.5024Z" fill="white"></path><path d="M132.013 33.433L131.45 31.7738H128.223L127.66 33.433H126.34L129.335 25.1697H130.334L133.329 33.433H132.009H132.013ZM129.866 27.0388L128.592 30.706H131.105L129.864 27.0388H129.866Z" fill="white"></path><path d="M137.018 33.5024C136.123 33.5024 135.435 33.2012 134.906 32.6664C134.113 31.8541 134.079 31.0291 134.079 29.3005C134.079 27.5719 134.113 26.7468 134.906 25.9345C135.433 25.4015 136.123 25.0985 137.018 25.0985C138.522 25.0985 139.647 26.0039 139.934 27.6394H138.672C138.488 26.7924 137.926 26.212 137.018 26.212C136.525 26.212 136.112 26.3982 135.812 26.7231C135.399 27.1648 135.319 27.6631 135.319 29.3005C135.319 30.9378 135.4 31.4361 135.812 31.8779C136.11 32.2028 136.523 32.3889 137.018 32.3889C137.924 32.3889 138.499 31.8085 138.694 30.9615H139.934C139.647 32.5989 138.511 33.5024 137.018 33.5024Z" fill="white"></path><path d="M144.125 26.2941V33.4312H142.884V26.2941H140.635V25.1678H146.374V26.2941H144.125Z" fill="white"></path><path d="M147.786 33.433V25.1697H149.027V33.433H147.786Z" fill="white"></path><path d="M155.913 32.6664C155.386 33.1994 154.696 33.5024 153.801 33.5024C152.905 33.5024 152.217 33.2012 151.688 32.6664C150.885 31.8541 150.861 31.0291 150.861 29.3005C150.861 27.5719 150.885 26.7468 151.688 25.9345C152.215 25.4015 152.905 25.0985 153.801 25.0985C154.696 25.0985 155.384 25.3997 155.913 25.9345C156.717 26.7468 156.74 27.5719 156.74 29.3005C156.74 31.0291 156.717 31.8541 155.913 32.6664ZM155.018 26.7249C154.707 26.4 154.294 26.2138 153.801 26.2138C153.308 26.2138 152.894 26.4 152.584 26.7249C152.181 27.1666 152.102 27.6649 152.102 29.3023C152.102 30.9396 152.183 31.427 152.584 31.8669C152.894 32.1918 153.308 32.3889 153.801 32.3889C154.294 32.3889 154.707 32.1918 155.018 31.8669C155.431 31.4379 155.5 30.9378 155.5 29.3023C155.5 27.6668 155.431 27.1557 155.018 26.7249Z" fill="white"></path><path d="M163.594 33.433L159.817 27.6175V33.433H158.576V25.1697H159.712L163.489 30.9725V25.1697H164.73V33.433H163.594Z" fill="white"></path><path d="M34.9284 5.95251C37.18 6.27012 38.8519 8.22324 38.8519 10.5214V13.5642C38.8519 36.2788 25.1911 42.4065 20.7801 43.792C19.8972 44.0694 18.9529 44.0694 18.07 43.792C13.6608 42.4047 0 36.2788 0 13.5624V10.5378C0 8.23602 1.67555 6.26829 3.9325 5.96711C9.87999 5.17309 14.2567 2.71434 16.8151 0.867091C18.3932 -0.271925 20.5021 -0.292004 22.0946 0.828759C24.7072 2.66871 29.138 5.13658 34.9321 5.95251H34.9284Z" fill="url(#paint0_linear_56_38)"></path><path d="M30.2593 16.0959C30.1492 16.6453 29.8079 17.0396 29.4287 17.4229C25.5197 21.3657 21.6161 25.3157 17.7125 29.2639C17.1853 29.7969 16.5714 30.0306 15.8492 29.775C15.5856 29.6819 15.3256 29.5122 15.127 29.3132C13.1282 27.3108 11.1385 25.2993 9.15237 23.2823C8.35071 22.4682 8.41751 21.2981 9.2914 20.61C9.9721 20.0733 10.9308 20.1719 11.6079 20.8546C13.1408 22.4006 14.6701 23.9485 16.1995 25.4983C16.259 25.5585 16.297 25.6388 16.3782 25.7593C16.4703 25.6351 16.5082 25.564 16.5624 25.511C20.1175 21.9151 23.6726 18.321 27.2278 14.725C27.7442 14.203 28.3418 13.9858 29.055 14.2121C29.6779 14.4093 30.0499 14.8546 30.2142 15.488C30.2268 15.5355 30.2431 15.5811 30.2575 15.6268V16.0977L30.2593 16.0959Z" fill="white"></path></g><defs><linearGradient id="paint0_linear_56_38" x1="4.60236" y1="33.9351" x2="34.5782" y2="4.28606" gradientUnits="userSpaceOnUse"><stop stop-color="#6BCC1C"></stop><stop offset="1" stop-color="#0AA374"></stop></linearGradient><clipPath id="clip0_56_38"><rect width="176" height="44" fill="white"></rect></clipPath></defs></svg>